<svg width="20" height="18" viewBox="0 0 20 18" fill="none" xmlns="http://www.w3.org/2000/svg">
<path d="M4.37464 12.2249L1.08746 7.04257C0.906205 6.75683 1.0552 6.37732 1.38244 6.29121L2.17458 6.08277C2.47745 6.00308 2.80015 6.06987 3.0465 6.26324L4.62192 7.49983L7.5197 6.72338L3.21304 0.966868C2.97953 0.654737 3.17715 0.207302 3.56514 0.16968L5.2669 0.00467206C5.5478 -0.0225642 5.82712 0.0701556 6.03597 0.259959L11.8664 5.55868L16.4544 4.32933C17.6547 4.00771 18.8885 4.72002 19.2101 5.92033C19.5317 7.12064 18.8194 8.35441 17.6191 8.67603L4.37464 12.2249Z" fill="#808089"/>
<path d="M1 15.1613C0.447715 15.1613 0 15.609 0 16.1613C0 16.7136 0.447715 17.1613 1 17.1613H19C19.5523 17.1613 20 16.7136 20 16.1613C20 15.609 19.5523 15.1613 19 15.1613H1Z" fill="#808089"/>
</svg>
