<svg width="111" height="36" viewBox="0 0 111 36" fill="none" xmlns="http://www.w3.org/2000/svg">
<g clip-path="url(#clip0_1_2386)">
<path d="M14.7282 5.57715L17.9466 8.00859L15.9805 10.5101C17.3379 12.0461 17.8382 13.7988 17.8382 15.7299C17.8382 17.9096 17.0161 20.9848 14.1195 22.3073C17.0512 23.7731 17.7649 25.8827 17.7649 28.1357C17.7649 32.9986 14.0463 36.0004 8.93505 36.0004C3.82384 36.0004 0 32.8902 0 28.1357H4.32413C4.32413 30.4237 6.43362 31.9247 8.93505 31.9247C11.4365 31.9247 13.4026 30.5671 13.4026 28.1357C13.4026 25.7043 11.1146 24.5953 8.93505 24.5953C3.4319 24.5953 0 21.2365 0 15.7299C0 10.2233 4.00229 6.79128 8.93823 6.79128C10.3339 6.79128 11.7615 6.96973 12.9788 7.7919L14.7282 5.57715ZM4.32413 15.7299C4.32413 18.8051 6.39857 20.6279 8.93505 20.6279C11.4365 20.6279 13.5109 18.77 13.5109 15.7299C13.5109 12.6898 11.4397 10.7619 8.93823 10.7619C6.39856 10.7619 4.32413 12.6548 4.32413 15.7299Z" fill="#112211"/>
<path d="M50.5672 0V24.99H46.243V0H50.5672Z" fill="#112211"/>
<path d="M69.9987 16.195C69.9987 21.2714 66.5317 25.3822 60.8119 25.3822C55.0921 25.3822 51.6602 21.2714 51.6602 16.195C51.6602 11.1537 55.1622 7.00781 60.7768 7.00781C66.3915 7.00781 69.9987 11.1537 69.9987 16.195ZM56.0193 16.195C56.0193 18.875 57.6285 21.3798 60.8087 21.3798C63.9889 21.3798 65.5981 18.8782 65.5981 16.195C65.5981 13.5501 63.7403 10.9752 60.8087 10.9752C57.6636 10.9752 56.0193 13.5501 56.0193 16.195Z" fill="#112211"/>
<path d="M75.4507 0V9.76082C76.4864 7.93804 79.3829 6.93742 81.2407 6.93742C86.3869 6.93742 90.214 10.0827 90.214 16.1597C90.214 21.9499 86.3168 25.382 81.1355 25.382C78.991 25.382 76.8114 24.6681 75.4507 22.5586L75.164 24.99H71.0884V0H75.4507ZM75.7343 16.1597C75.7343 19.34 78.0924 21.3444 80.8456 21.3444C83.6338 21.3444 85.8516 19.2348 85.8516 16.1597C85.8516 12.9794 83.6338 11.0132 80.8456 11.0132C78.0956 11.01 75.7343 13.0845 75.7343 16.1597Z" fill="#112211"/>
<path d="M96.6987 19.232C97.712 21.1822 100.032 22.014 102.922 20.9624C104.432 20.4111 106.207 19.1205 106.794 17.8044L110.356 19.4359C109.27 21.8865 106.733 23.7985 104.213 24.7163C98.5023 26.794 93.8244 24.5028 91.8934 19.1938C90.058 14.1556 92.1643 9.27997 97.5399 7.32334C103.081 5.30617 107.791 7.47312 109.633 14.5253L96.6987 19.232ZM104.467 12.5623C103.416 10.51 101.345 10.048 98.993 10.902C96.7752 11.7082 95.354 13.445 95.5324 15.8127L104.467 12.5623Z" fill="#112211"/>
<path fill-rule="evenodd" clip-rule="evenodd" d="M39.7626 11.9901C38.3489 9.04053 35.4017 7.00781 31.4702 7.00781C25.8555 7.00781 22.3535 11.1537 22.3535 16.195C22.3535 19.4135 23.733 22.2439 26.2006 23.8845C26.3412 23.7793 26.4258 23.711 26.4258 23.711C27.6566 22.908 28.8573 22.0626 30.0258 21.1768C27.8244 20.529 26.7127 18.4225 26.7127 16.195C26.7127 13.5501 28.3601 10.9752 31.5021 10.9752C34.269 10.9752 36.0793 13.2689 36.274 15.7503C37.4868 14.5466 38.6508 13.2923 39.7626 11.9901ZM31.0601 25.3738C34.5418 22.906 37.7611 20.0869 40.6652 16.9633C40.3328 21.6798 36.9335 25.3822 31.5052 25.3822C31.3553 25.3822 31.2069 25.3794 31.0601 25.3738Z" fill="#8DD3BB"/>
<path d="M43.3178 4.53767C38.863 2.89971 35.6605 6.42418 35.6605 6.42418L38.6973 8.18961C39.8349 7.53634 40.3416 8.17049 40.4722 8.51784C40.5646 8.76321 40.4404 9.03089 40.3416 9.17748L39.6023 10.1112C35.6127 14.9231 30.9222 19.104 25.6867 22.5201C25.6867 22.5201 24.1062 23.7948 23.2649 23.8139C22.5575 23.8299 22.242 23.234 22.8379 22.3799L21.3721 19.0721C21.3721 19.0721 17.5578 21.5705 18.2971 25.9618C18.6094 27.8164 20.3524 29.1357 22.2038 28.8011C23.1502 28.6322 24.3197 28.1701 25.7504 27.2237L28.3825 25.5029C33.618 22.0804 38.3117 17.8867 42.2981 13.0684L43.2031 11.9754C44.5669 10.4235 45.1787 9.14561 45.3859 8.13543C45.7045 6.58989 44.79 5.0794 43.3178 4.53767Z" fill="#8DD3BB"/>
</g>
<defs>
<clipPath id="clip0_1_2386">
<rect width="110.353" height="36" fill="white"/>
</clipPath>
</defs>
</svg>
